<?xml version="1.0" standalone="no"?>
<!DOCTYPE svg PUBLIC "-//W3C//DTD SVG 20010904//EN"
 "http://www.w3.org/TR/2001/REC-SVG-20010904/DTD/svg10.dtd">
<svg version="1.0" xmlns="http://www.w3.org/2000/svg"
 width="736.000000pt" height="736.000000pt" viewBox="0 0 736.000000 736.000000"
 preserveAspectRatio="xMidYMid meet">

<g transform="translate(0.000000,736.000000) scale(0.100000,-0.100000)"
fill="#000000" stroke="none">
<path d="M3133 7014 c-437 -63 -845 -264 -1166 -573 -319 -308 -531 -712 -612
-1166 -22 -124 -30 -423 -16 -560 26 -238 95 -484 195 -690 l53 -110 13 90 c7
50 25 141 41 202 188 739 779 1328 1518 1514 254 64 225 62 1376 67 l1050 4
59 67 c71 80 820 911 959 1063 l98 108 -1738 -1 c-1400 -1 -1756 -4 -1830 -15z"/>
<path d="M3530 5364 c-301 -36 -546 -121 -768 -267 -594 -390 -882 -1089 -732
-1779 133 -615 621 -1120 1230 -1273 153 -38 245 -49 420 -49 286 0 505 50
752 175 174 87 289 169 431 308 459 447 622 1129 417 1744 -17 50 -58 146 -91
212 -239 478 -694 818 -1219 910 -91 15 -367 28 -440 19z"/>
<path d="M5752 3317 c-153 -868 -829 -1549 -1693 -1706 -193 -35 -372 -41
-1343 -41 l-938 0 -63 -67 c-34 -38 -151 -167 -260 -288 -220 -244 -401 -445
-605 -669 -74 -82 -148 -164 -163 -182 l-28 -34 1723 0 c1638 0 1729 1 1848
19 458 69 842 257 1164 570 355 346 573 792 627 1283 17 148 5 475 -20 601
-43 210 -108 402 -193 570 l-34 69 -22 -125z"/>
</g>
</svg>
